<?xml version="1.0" encoding="UTF-8"?>
<svg id="Layer_2" data-name="Layer 2" xmlns="http://www.w3.org/2000/svg" viewBox="0 0 1681.69 305.28">
  <defs>
    
  </defs>
  <g id="Layer_1-2" data-name="Layer 1">
    <g>
      <polygon class="cls-2" points="475.02 177.82 376.9 38.17 342.56 38.17 342.56 267.11 387.7 267.11 387.7 127.12 485.81 267.11 520.15 267.11 520.15 38.17 475.02 38.17 475.02 177.82"></polygon>
      <path class="cls-2" d="m645.39,38.21h-45.74v43.07h45.74c39.51,0,67.09,29.23,67.09,71.41s-27.57,71.27-67.09,71.27h-45.74V81.28h-45.23v185.88h90.97c63.15,0,110.16-50.05,110.16-114.47s-47.01-114.48-110.16-114.48"></path>
      <rect class="cls-2" x="779.44" y="38.17" width="45.13" height="228.94"></rect>
      <path class="cls-2" d="m970.76,56.48c34.33,0,64.75,18.32,78.82,45.79l20.28-11.78c-18.98-34.01-56.58-56.26-99.1-56.26-70.32,0-120.03,53-120.03,118.4s49.7,118.4,120.03,118.4c42.84,0,80.46-22.56,99.1-56.58l-20.28-11.44c-14.06,27.47-44.48,45.79-78.82,45.79-57.9,0-97.14-42.84-97.14-96.16s39.25-96.15,97.14-96.15"></path>
      <rect class="cls-2" x="1095.99" y="28.34" width="21.59" height="238.76"></rect>
      <path class="cls-2" d="m1231.38,99.65c-47.75,0-86.03,37.28-86.03,85.69s38.28,85.68,86.03,85.68,86.02-37.28,86.02-85.68-38.28-85.69-86.02-85.69m0,150.44c-36.3,0-64.43-28.45-64.43-64.75s28.13-64.76,64.43-64.76,64.43,28.45,64.43,64.76-28.13,64.75-64.43,64.75"></path>
      <path class="cls-2" d="m1660.1,38.17v97.47c-13.73-21.93-36.96-35.99-66.07-35.99-46.11,0-84.39,37.28-84.39,85.69s38.28,85.68,84.39,85.68c29.11,0,52.34-14.05,66.07-35.96v32.05h21.59V38.17h-21.59Zm-64.43,211.93c-36.3,0-64.43-28.45-64.43-64.75s28.13-64.76,64.43-64.76,64.43,28.45,64.43,64.76-28.13,64.75-64.43,64.75"></path>
      <path class="cls-2" d="m1460.46,199.76c0,26.89-21.88,48.76-48.76,48.76s-48.78-21.87-48.78-48.76v-96.17h-21.59v96.17c0,38.8,31.56,70.36,70.37,70.36s70.35-31.56,70.35-70.36v-96.17h-21.59v96.17Z"></path>
      <g>
        <path class="cls-1" d="m49.08,122.87l29.25,19.93,57.35-38.6V0L23.97,75.12C8.97,85.23,0,102.08,0,120.19c0,11.85,3.86,23.21,10.77,32.45-6.9,9.24-10.77,20.59-10.77,32.45,0,18.1,8.97,34.95,23.97,45.06l111.71,75.12v-104.21l-40.17-27.06-31.74-21.36-12.18-8.21-4.89-3.27-4.73-3.21c-2.4-1.63-4.41-3.69-5.93-6.03-2.22-3.42-3.42-7.44-3.42-11.74,0-7.34,3.48-13.92,9.57-18l32.3-21.69,28.59-19.25v25.55l-53.99,36.06Zm53.99,121.15l-60.89-40.94c-6.09-4.08-9.57-10.65-9.57-17.98,0-4.31,1.2-8.33,3.42-11.75l67.03,45.12v25.55Z"></path>
        <path class="cls-1" d="m245.78,182.41l-29.25-19.93-57.35,38.6v104.21l111.71-75.12c15-10.11,23.97-26.96,23.97-45.07,0-11.85-3.86-23.21-10.77-32.45,6.9-9.24,10.77-20.59,10.77-32.45,0-18.1-8.97-34.95-23.97-45.06L159.18,0v104.21l40.17,27.06,31.74,21.36,12.18,8.21,4.89,3.27,4.73,3.21c2.4,1.63,4.41,3.69,5.92,6.03,2.24,3.42,3.44,7.44,3.44,11.74,0,7.34-3.48,13.92-9.57,18l-32.3,21.69-28.59,19.25v-25.55l53.99-36.06Zm-53.99-121.15l60.89,40.94c6.09,4.08,9.57,10.65,9.57,17.98,0,4.31-1.2,8.33-3.44,11.75l-67.02-45.12v-25.55Z"></path>
      </g>
    </g>
  </g>
</svg>