<?xml version="1.0" encoding="UTF-8"?>
<svg id="Layer_1" data-name="Layer 1" xmlns="http://www.w3.org/2000/svg" viewBox="0 0 1274.67 875.83">
  <defs>
    <style>
      .cls-1 {
        fill: #17a7ff;
      }

      .cls-2 {
        fill: #002054;
      }
    </style>
  </defs>
  <polygon class="cls-2" points="526.9 445.52 497.28 403.36 486.91 403.36 486.91 472.47 500.54 472.47 500.54 430.21 530.16 472.47 540.52 472.47 540.52 403.36 526.9 403.36 526.9 445.52"/>
  <path class="cls-2" d="m578.33,403.37h-13.81v13h13.81c11.93,0,20.25,8.82,20.25,21.56s-8.32,21.52-20.25,21.52h-13.81v-43.07h-13.66v56.11h27.46c19.06,0,33.26-15.11,33.26-34.56s-14.19-34.56-33.26-34.56"/>
  <rect class="cls-2" x="618.8" y="403.36" width="13.62" height="69.11"/>
  <path class="cls-2" d="m676.56,408.89c10.37,0,19.55,5.53,23.79,13.82l6.12-3.56c-5.73-10.27-17.08-16.98-29.92-16.98-21.23,0-36.23,16-36.23,35.74s15.01,35.74,36.23,35.74c12.93,0,24.29-6.81,29.92-17.08l-6.12-3.45c-4.25,8.29-13.43,13.82-23.79,13.82-17.48,0-29.33-12.93-29.33-29.03s11.85-29.03,29.33-29.03"/>
  <rect class="cls-2" x="714.36" y="400.39" width="6.52" height="72.08"/>
  <path class="cls-2" d="m755.23,421.92c-14.42,0-25.97,11.25-25.97,25.87s11.55,25.87,25.97,25.87,25.97-11.25,25.97-25.87-11.55-25.87-25.97-25.87m0,45.42c-10.96,0-19.45-8.59-19.45-19.55s8.49-19.55,19.45-19.55,19.45,8.59,19.45,19.55-8.49,19.55-19.45,19.55"/>
  <path class="cls-2" d="m884.66,403.36v29.42c-4.14-6.62-11.16-10.86-19.95-10.86-13.92,0-25.48,11.25-25.48,25.87s11.55,25.87,25.48,25.87c8.79,0,15.8-4.24,19.95-10.86v9.67h6.52v-69.11h-6.52Zm-19.45,63.98c-10.96,0-19.45-8.59-19.45-19.55s8.49-19.55,19.45-19.55,19.45,8.59,19.45,19.55-8.49,19.55-19.45,19.55"/>
  <path class="cls-2" d="m824.39,452.14c0,8.12-6.6,14.72-14.72,14.72s-14.73-6.6-14.73-14.72v-29.03h-6.52v29.03c0,11.71,9.53,21.24,21.24,21.24s21.24-9.53,21.24-21.24v-29.03h-6.52v29.03Z"/>
  <g>
    <path class="cls-1" d="m398.31,428.93l8.83,6.02,17.31-11.65v-31.46l-33.72,22.68c-4.53,3.05-7.24,8.14-7.24,13.61,0,3.58,1.17,7.01,3.25,9.8-2.08,2.79-3.25,6.22-3.25,9.8,0,5.46,2.71,10.55,7.24,13.6l33.72,22.68v-31.46l-12.13-8.17-9.58-6.45-3.68-2.48-1.48-.99-1.43-.97c-.72-.49-1.33-1.11-1.79-1.82-.67-1.03-1.03-2.25-1.03-3.54,0-2.22,1.05-4.2,2.89-5.43l9.75-6.55,8.63-5.81v7.71l-16.3,10.89Zm16.3,36.57l-18.38-12.36c-1.84-1.23-2.89-3.22-2.89-5.43,0-1.3.36-2.51,1.03-3.55l20.24,13.62v7.71Z"/>
    <path class="cls-1" d="m457.69,446.9l-8.83-6.02-17.31,11.65v31.46l33.72-22.68c4.53-3.05,7.24-8.14,7.24-13.61,0-3.58-1.17-7.01-3.25-9.8,2.08-2.79,3.25-6.22,3.25-9.8,0-5.46-2.71-10.55-7.24-13.6l-33.72-22.68v31.46l12.13,8.17,9.58,6.45,3.68,2.48,1.48.99,1.43.97c.72.49,1.33,1.11,1.79,1.82.68,1.03,1.04,2.25,1.04,3.54,0,2.22-1.05,4.2-2.89,5.43l-9.75,6.55-8.63,5.81v-7.71l16.3-10.89Zm-16.3-36.57l18.38,12.36c1.84,1.23,2.89,3.22,2.89,5.43,0,1.3-.36,2.51-1.04,3.55l-20.23-13.62v-7.71Z"/>
  </g>
</svg>